<?xml version="1.0" encoding="UTF-8" standalone="no"?>
<!-- Created with Inkscape (http://www.inkscape.org/) -->
<svg xmlns="http://www.w3.org/2000/svg" height="329" width="209" version="1.0" xmlns:xlink="http://www.w3.org/1999/xlink">
 <defs id="defs4">
  <filter id="filter10933" color-interpolation-filters="sRGB">
   <feGaussianBlur id="feGaussianBlur10935" stdDeviation="1.30068"/>
  </filter>
  <radialGradient id="radialGradient2896" gradientUnits="userSpaceOnUse" cy="8.3155" cx="11.947" gradientTransform="matrix(0.18962778,-2.8444735,0.97153919,0.06476798,1.6026509,66.548371)" r="28.634">
   <stop id="stop3849" stop-opacity="0.99215686" stop-color="#f1f1f1" offset="0"/>
   <stop id="stop3851" stop-opacity="0.98431373" stop-color="#cfcfcf" offset="1"/>
  </radialGradient>
  <radialGradient id="radialGradient2898" gradientUnits="userSpaceOnUse" cy="-119.36" cx="73.077" gradientTransform="matrix(-1.0984108,0.2943179,-0.86637889,-3.23337,49.933906,-352.62446)" r="64.761">
   <stop id="stop2975" stop-opacity="0.99215686" stop-color="#f1f1f1" offset="0"/>
   <stop id="stop2977" stop-color="#cfcfcf" offset="1"/>
  </radialGradient>
  <radialGradient id="radialGradient2900" gradientUnits="userSpaceOnUse" cy="-92.025" cx="89.905" gradientTransform="matrix(1.1076647,-0.29679787,0.49462864,1.8459792,35.83864,324.94279)" r="52.051">
   <stop id="stop3841" stop-color="#c10112" offset="0"/>
   <stop id="stop3843" stop-color="#5e0513" offset="1"/>
  </radialGradient>
  <radialGradient id="radialGradient2902" gradientUnits="userSpaceOnUse" cy="27.659" cx="130.88" gradientTransform="matrix(2.5590945,0,3.3150639e-6,4.5137433,-204.0605,138.51923)" r="13.818">
   <stop id="stop3857" stop-color="#cfcfcf" offset="0"/>
   <stop id="stop3859" stop-color="#c1c1c1" offset="1"/>
  </radialGradient>
 </defs>
 <g id="g2992" transform="translate(8,7.999996)">
  <path id="ellipse9968" d="m35.331,80.275c-9.6003,1.8985-17.005,5.3965-16.528,7.808,0.47689,2.4116,8.6555,2.828,18.256,0.92949,9.6003-1.8985,17.005-5.3965,16.528-7.808-0.477-2.411-8.655-2.827-18.256-0.929zm-0.27189,3.4246c1.962-0.44,4.752-2.048,5.979-3.904-7.449-2.939-7.684-10.908-8.686-17.022l0.09316-1.4319c0.4151-1.9839,2.4566-6.4055,3.6946-8.5496,5.734-9.93,0.012-29.792-4.297-46.694-4.71-4.2941-25.074,0.3183-28.884,6.6915,3.0326,11.411,7.2395,34.224,16.802,43.211,2.1452,2.0163,5.2021,2.8029,8.1146,6.3175l0.6879,1.1573c2.2174,6.1909,5.0839,14.147,0.4529,18.696,1.5984,1.2193,4.0831,1.973,6.0435,1.5293z" fill-opacity="0.50196078" transform="matrix(3.4014139,0,0,3.4014139,0.55162226,-4.43821)" filter="url(#filter10933)" fill="#000"/>
  <ellipse id="ellipse9861" d="M 28.634001,0 C 28.634001,62.954937 15.814122,113.99 0,113.99 -15.814122,113.99 -28.634001,62.954937 -28.634001,0 c 0,-62.954937 12.819879,-113.99 28.634001,-113.99 15.814122,0 28.634001,51.035063 28.634001,113.99 z" rx="28.634" ry="113.99" transform="matrix(-0.10262566,-0.5189629,-0.5189629,0.10262566,127.53236,278.74732)" cy="0" cx="0" stroke-miterlimit="79.84" fill="url(#radialGradient2896)"/>
  <path id="path9863" d="m123.67,275.54c6.6724-1.4982,16.161-6.965,20.336-13.28-25.338-9.9973-26.137-37.103-29.545-57.899l0.31688-4.8706c1.4119-6.7481,8.3558-21.788,12.567-29.081,19.505-33.778,0.0402-101.33-14.615-158.83-16.034-14.609-85.299,1.08-98.257,22.757,10.316,38.815,24.626,116.41,57.148,146.98,7.2967,6.8581,17.694,9.5339,27.601,21.488l2.3398,3.9364c7.5421,21.058,17.292,48.12,1.5405,63.593,5.4367,4.1475,13.888,6.7111,20.556,5.2018z" style="marker-start:none;marker-end:none;" stroke-miterlimit="79.84031677" fill="url(#radialGradient2898)"/>
  <path id="path9865" d="M119.84,52.694c-34.284-16.065-23.988,65.046-90.685,30.443,23.9,90.575,44.907,102.5,75.911,113.22,9.5767-8.7425,48.312-37.499,14.774-143.66z" style="marker-start:none;marker-end:none;" stroke-miterlimit="79.84031677" fill="url(#radialGradient2900)"/>
  <path id="path11024" d="m105.02,201.56,3.037-0.30371c4.0704,14.85,10.413,49.894,24.6,62.562-6.0108,4.8235-13.381,5.8405-21.411,5.011,7.013-21.462-1.5549-51.162-6.2258-67.269z" fill="url(#radialGradient2902)" fill-rule="evenodd"/>
  <path id="path11022" d="m143.21,263.44,3.1888,2.8851c30.836-5.0817,36.692,1.0325,23.992,12.376,15.903-5.3607,24.724-23.162-27.181-15.261z" fill="#c2c2c2" fill-rule="evenodd"/>
 </g>
 <rect id="icon:193-24" height="313" width="193" y="8" x="8" fill="none"/>
</svg>
